<svg id="visual" viewBox="0 0 900 600" width="900" height="600" xmlns="http://www.w3.org/2000/svg" xmlns:xlink="http://www.w3.org/1999/xlink" version="1.1"><rect x="0" y="0" width="900" height="600" fill="#520168"></rect><path d="M384 600L521 600L521 514L269 514L269 429L388 429L388 343L467 343L467 257L376 257L376 171L429 171L429 86L542 86L542 0L900 0L900 86L900 86L900 171L900 171L900 257L900 257L900 343L900 343L900 429L900 429L900 514L900 514L900 600L900 600Z" fill="#9900ff"></path><path d="M599 600L425 600L425 514L620 514L620 429L688 429L688 343L488 343L488 257L557 257L557 171L447 171L447 86L459 86L459 0L900 0L900 86L900 86L900 171L900 171L900 257L900 257L900 343L900 343L900 429L900 429L900 514L900 514L900 600L900 600Z" fill="#7700c6"></path><path d="M671 600L599 600L599 514L590 514L590 429L767 429L767 343L756 343L756 257L824 257L824 171L646 171L646 86L749 86L749 0L900 0L900 86L900 86L900 171L900 171L900 257L900 257L900 343L900 343L900 429L900 429L900 514L900 514L900 600L900 600Z" fill="#560090"></path></svg>