<svg id="visual" viewBox="0 0 900 300" width="300" height="900" xmlns="http://www.w3.org/2000/svg" xmlns:xlink="http://www.w3.org/1999/xlink" version="1.1"><rect x="0" y="0" width="900" height="300" fill="#8100ad"></rect><path d="M0 142L21.5 139.7C43 137.3 86 132.7 128.8 135.7C171.7 138.7 214.3 149.3 257.2 156.5C300 163.7 343 167.3 385.8 170.2C428.7 173 471.3 175 514.2 168C557 161 600 145 642.8 139.8C685.7 134.7 728.3 140.3 771.2 135.8C814 131.3 857 116.7 878.5 109.3L900 102L900 301L878.5 301C857 301 814 301 771.2 301C728.3 301 685.7 301 642.8 301C600 301 557 301 514.2 301C471.3 301 428.7 301 385.8 301C343 301 300 301 257.2 301C214.3 301 171.7 301 128.8 301C86 301 43 301 21.5 301L0 301Z" fill="#560090"></path><path d="M0 152L21.5 156.5C43 161 86 170 128.8 174C171.7 178 214.3 177 257.2 175.5C300 174 343 172 385.8 165.3C428.7 158.7 471.3 147.3 514.2 150.5C557 153.7 600 171.3 642.8 175.3C685.7 179.3 728.3 169.7 771.2 163.7C814 157.7 857 155.3 878.5 154.2L900 153L900 301L878.5 301C857 301 814 301 771.2 301C728.3 301 685.7 301 642.8 301C600 301 557 301 514.2 301C471.3 301 428.7 301 385.8 301C343 301 300 301 257.2 301C214.3 301 171.7 301 128.8 301C86 301 43 301 21.5 301L0 301Z" fill="#580085"></path><path d="M0 217L21.5 213C43 209 86 201 128.8 202.5C171.7 204 214.3 215 257.2 212.3C300 209.7 343 193.3 385.8 193.3C428.7 193.3 471.3 209.7 514.2 213.8C557 218 600 210 642.8 208.3C685.7 206.7 728.3 211.3 771.2 213C814 214.7 857 213.3 878.5 212.7L900 212L900 301L878.5 301C857 301 814 301 771.2 301C728.3 301 685.7 301 642.8 301C600 301 557 301 514.2 301C471.3 301 428.7 301 385.8 301C343 301 300 301 257.2 301C214.3 301 171.7 301 128.8 301C86 301 43 301 21.5 301L0 301Z" fill="#58007b"></path><path d="M0 227L21.5 227.8C43 228.7 86 230.3 128.8 232.2C171.7 234 214.3 236 257.2 233.3C300 230.7 343 223.3 385.8 225.3C428.7 227.3 471.3 238.7 514.2 243.5C557 248.3 600 246.7 642.8 239.8C685.7 233 728.3 221 771.2 220.2C814 219.3 857 229.7 878.5 234.8L900 240L900 301L878.5 301C857 301 814 301 771.2 301C728.3 301 685.7 301 642.8 301C600 301 557 301 514.2 301C471.3 301 428.7 301 385.8 301C343 301 300 301 257.2 301C214.3 301 171.7 301 128.8 301C86 301 43 301 21.5 301L0 301Z" fill="#570071"></path><path d="M0 278L21.5 274.3C43 270.7 86 263.3 128.8 262.3C171.7 261.3 214.3 266.7 257.2 266.5C300 266.3 343 260.7 385.8 258C428.7 255.3 471.3 255.7 514.2 254C557 252.3 600 248.7 642.8 246.5C685.7 244.3 728.3 243.7 771.2 243.7C814 243.7 857 244.3 878.5 244.7L900 245L900 301L878.5 301C857 301 814 301 771.2 301C728.3 301 685.7 301 642.8 301C600 301 557 301 514.2 301C471.3 301 428.7 301 385.8 301C343 301 300 301 257.2 301C214.3 301 171.7 301 128.8 301C86 301 43 301 21.5 301L0 301Z" fill="#560168"></path></svg>